<svg width="160" height="160" viewBox="0 0 160 160" fill="none" xmlns="http://www.w3.org/2000/svg">
<g clip-path="url(#clip0_13803_29251)">
<path d="M122.317 74.6883C121.662 37.9308 98.7005 24.8333 78.9946 24.8333C59.2888 24.8333 36.3275 37.9308 35.6721 74.6883C30.8459 77.8029 30.2446 83.1925 30.2446 87.125C30.2446 92.3142 35.0546 103.938 41.8905 105.823L42.1071 106.354C45.0538 113.683 52.8917 133.167 78.9946 133.167C105.098 133.167 112.935 113.683 115.888 106.354L116.104 105.823C122.94 103.933 127.75 92.3142 127.75 87.125C127.75 83.1925 127.149 77.8029 122.317 74.6883Z" fill="#A0A0AB"/>
<path d="M114.208 100.667C113.698 100.667 113.199 100.812 112.767 101.083C112.335 101.354 111.988 101.741 111.765 102.2C111.442 102.902 111.141 103.613 110.861 104.334C108.039 111.343 101.441 127.75 78.9945 127.75C56.5478 127.75 49.9503 111.343 47.1282 104.334C46.8473 103.614 46.5457 102.902 46.2236 102.2C46.0031 101.74 45.6573 101.353 45.226 101.082C44.7947 100.81 44.2956 100.666 43.7861 100.667C40.3845 100.667 35.6611 91.2687 35.6611 87.125C35.6611 81.3237 37.5082 79.6717 39.5015 78.7508C39.9718 78.5344 40.3703 78.1878 40.6496 77.752C40.929 77.3161 41.0776 76.8093 41.0778 76.2917C41.0778 42.3454 60.6645 30.25 78.9945 30.25C97.3245 30.25 116.911 42.3454 116.911 76.2917C116.911 76.8093 117.06 77.3161 117.339 77.752C117.619 78.1878 118.017 78.5344 118.487 78.7508C120.492 79.6717 122.333 81.3237 122.333 87.125C122.333 91.2687 117.604 100.667 114.208 100.667Z" fill="white" fill-opacity="0.5"/>
<path d="M39.1603 90.6242C39.1603 84.8229 41.0074 83.1708 43.0007 82.25C43.4706 82.0331 43.8686 81.6863 44.1479 81.2506C44.4272 80.8149 44.5761 80.3084 44.577 79.7908C44.577 45.8446 64.1636 33.7492 82.4936 33.7492C90.8245 33.7492 99.399 36.2896 106.294 42.2046C98.9603 33.7708 88.8095 30.25 78.9945 30.25C60.6645 30.25 41.0778 42.3454 41.0778 76.2917C41.0776 76.8094 40.929 77.3161 40.6496 77.752C40.3703 78.1878 39.9718 78.5344 39.5015 78.7508C37.5082 79.6717 35.6611 81.3238 35.6611 87.125C35.6611 90.9004 39.572 98.955 42.8436 100.374C40.807 97.2813 39.1603 93.0563 39.1603 90.6242Z" fill="white" fill-opacity="0.3"/>
<path d="M118.726 78.8754C119.332 80.1213 119.733 81.8763 119.733 84.525C119.733 88.6688 115.01 98.0667 111.608 98.0667C111.098 98.0674 110.599 98.2115 110.167 98.4826C109.735 98.7536 109.388 99.1407 109.165 99.5996C108.842 100.302 108.541 101.013 108.261 101.734C105.439 108.743 98.8412 125.15 76.3945 125.15C66.5037 125.15 59.6949 121.96 54.9229 117.794C59.722 123.157 67.132 127.75 78.9945 127.75C101.441 127.75 108.039 111.343 110.861 104.334C111.218 103.445 111.516 102.72 111.765 102.2C111.987 101.74 112.334 101.352 112.766 101.081C113.198 100.81 113.698 100.666 114.208 100.667C117.61 100.667 122.333 91.2688 122.333 87.125C122.333 81.5567 120.632 79.8233 118.726 78.8754Z" fill="black" fill-opacity="0.1"/>
<path d="M60.0363 84.4167C63.0278 84.4167 65.453 81.9916 65.453 79C65.453 76.0085 63.0278 73.5833 60.0363 73.5833C57.0447 73.5833 54.6196 76.0085 54.6196 79C54.6196 81.9916 57.0447 84.4167 60.0363 84.4167Z" fill="black" fill-opacity="0.7"/>
<path d="M97.9528 84.4167C100.944 84.4167 103.369 81.9916 103.369 79C103.369 76.0085 100.944 73.5833 97.9528 73.5833C94.9613 73.5833 92.5361 76.0085 92.5361 79C92.5361 81.9916 94.9613 84.4167 97.9528 84.4167Z" fill="black" fill-opacity="0.7"/>
</g>
<defs>
<clipPath id="clip0_13803_29251">
<path d="M0 80C0 35.8172 35.8172 0 80 0C124.183 0 160 35.8172 160 80C160 124.183 124.183 160 80 160C35.8172 160 0 124.183 0 80Z" fill="white"/>
</clipPath>
</defs>
</svg>
