<svg width="40" height="40" viewBox="0 0 40 40" fill="none" xmlns="http://www.w3.org/2000/svg">
<path d="M10 8.33331L8.33335 11.6666H10L13.3334 8.33331V9.99998H18.3334L20 6.66665V4.99998C20 4.52776 19.8403 4.13192 19.5209 3.81248C19.2014 3.49304 18.8056 3.33331 18.3334 3.33331H8.33335V6.66665H10V8.33331Z" fill="#26272B"/>
<path d="M6.66669 25.25V36.6666H16.835C14.6741 34.5491 13.3334 31.5978 13.3334 28.3333C13.3334 23.6793 16.0584 19.6618 20 17.7894V15C20 14.4722 19.8195 13.8819 19.4584 13.2291C19.0972 12.5764 18.7222 12.0555 18.3334 11.6666H13.3334L7.16669 23.3333C7.0278 23.6111 6.90974 23.9236 6.81252 24.2708C6.7153 24.618 6.66669 24.9444 6.66669 25.25Z" fill="#26272B"/>
<path fill-rule="evenodd" clip-rule="evenodd" d="M25 36.6666C22.6945 36.6666 20.7292 35.8541 19.1042 34.2291C17.4792 32.6041 16.6667 30.6389 16.6667 28.3333C16.6667 26.0555 17.4722 24.0972 19.0834 22.4583C20.6945 20.8194 22.6667 20 25 20C27.3056 20 29.2709 20.8125 30.8959 22.4375C32.5209 24.0625 33.3334 26.0278 33.3334 28.3333C33.3334 30.6389 32.5209 32.6041 30.8959 34.2291C29.2709 35.8541 27.3056 36.6666 25 36.6666ZM24.4584 30.2228H26.1251V23.3333H24.4584V30.2228ZM25.2918 33.3333C25.514 33.3333 25.7084 33.25 25.8751 33.0833C26.0418 32.9166 26.1251 32.7222 26.1251 32.5C26.1251 32.2778 26.0418 32.0833 25.8751 31.9166C25.7084 31.75 25.514 31.6666 25.2918 31.6666C25.0695 31.6666 24.8751 31.75 24.7084 31.9166C24.5418 32.0833 24.4584 32.2778 24.4584 32.5C24.4584 32.7222 24.5418 32.9166 24.7084 33.0833C24.8751 33.25 25.0695 33.3333 25.2918 33.3333Z" fill="#26272B"/>
</svg>
