<svg width="40" height="40" viewBox="0 0 40 40" fill="none" xmlns="http://www.w3.org/2000/svg">
<path fill-rule="evenodd" clip-rule="evenodd" d="M20 35C15.85 35 12.3125 33.5375 9.3875 30.6125C6.4625 27.6875 5 24.15 5 20C5 15.9 6.45 12.375 9.35 9.425C12.25 6.475 15.8 5 20 5C24.15 5 27.6875 6.4625 30.6125 9.3875C33.5375 12.3125 35 15.85 35 20C35 24.15 33.5375 27.6875 30.6125 30.6125C27.6875 33.5375 24.15 35 20 35ZM19.0251 23.401H22.0251V11H19.0251V23.401ZM20.5251 29C20.9251 29 21.2751 28.85 21.5751 28.55C21.8751 28.25 22.0251 27.9 22.0251 27.5C22.0251 27.1 21.8751 26.75 21.5751 26.45C21.2751 26.15 20.9251 26 20.5251 26C20.1251 26 19.7751 26.15 19.4751 26.45C19.1751 26.75 19.0251 27.1 19.0251 27.5C19.0251 27.9 19.1751 28.25 19.4751 28.55C19.7751 28.85 20.1251 29 20.5251 29Z" fill="#26272B"/>
</svg>
