<svg width="33" height="40" viewBox="0 0 33 40" fill="none" xmlns="http://www.w3.org/2000/svg">
<path fill-rule="evenodd" clip-rule="evenodd" d="M31.7836 13.2827L31.7848 13.291C32.8187 20.3992 29.022 26.6579 23.1415 29.465C22.6786 29.7142 22.422 29.9609 22.2661 30.3074C22.2564 30.3289 22.2462 30.3502 22.2356 30.3713L18.9768 36.8112L18.9734 36.8179L17.8894 38.986C17.6245 39.5158 17.0812 39.8489 16.4888 39.8446C15.8964 39.8404 15.358 39.4995 15.1007 38.9659L14.0562 36.7995L10.8472 30.3428C10.6349 29.95 10.3075 29.6612 10.0445 29.5529C10.0159 29.5411 9.98773 29.5285 9.95993 29.5151C4.8089 27.0254 1.08252 21.7712 1.08252 15.5728C1.08252 6.50512 8.93889 -0.708708 18.1737 0.318783C25.1051 0.975274 30.7478 6.42048 31.7836 13.2827Z" fill="white"/>
<path fill-rule="evenodd" clip-rule="evenodd" d="M22.4418 28.0777C27.7622 25.5534 31.1797 19.9223 30.2476 13.5146C29.3156 7.33979 24.2282 2.44659 18.0146 1.86407C9.70395 0.932027 2.63599 7.41746 2.63599 15.5728C2.63599 21.1262 5.97579 25.8641 10.636 28.1165C11.2962 28.3883 11.8787 28.9709 12.2282 29.6311L15.4515 36.1165L16.5001 38.2913L17.5874 36.1165L20.8496 29.6699C21.1991 28.8932 21.7816 28.4272 22.4418 28.0777ZM16.5001 23.0291C20.4224 23.0291 23.6457 19.8446 23.6457 15.8835C23.6457 11.9611 20.4612 8.73783 16.5001 8.73783C12.5777 8.73783 9.35443 11.9223 9.35443 15.8835C9.35443 19.8058 12.5389 23.0291 16.5001 23.0291Z" fill="#66C61C"/>
<path opacity="0.1" d="M22.4029 28.0388C21.7427 28.3883 21.1602 28.8544 20.8107 29.6311L17.5874 36.1165L16.5 38.2913L15.4126 36.1165L15.1408 35.4951L18.0922 29.6311C18.4029 28.8932 19.0243 28.3883 19.6845 28.0388C25.0048 25.5534 28.4223 19.8835 27.4903 13.4757C26.5582 7.3398 21.5097 2.40776 15.2573 1.82524C15.2184 1.82524 15.1408 1.82524 15.1019 1.82524C16.0728 1.70873 17.0437 1.74757 18.0534 1.82524C24.3058 2.40776 29.3544 7.30097 30.2864 13.4757C31.1408 19.8835 27.7233 25.5534 22.4029 28.0388Z" fill="black"/>
<path d="M15.5291 18.4077C15.4126 18.4077 15.3349 18.3689 15.2573 18.2912L12.9272 15.9611C12.7718 15.8058 12.7718 15.5728 12.9272 15.4174C13.0825 15.2621 13.3155 15.2621 13.4709 15.4174L15.5291 17.4757L19.4903 13.5145C19.6456 13.3592 19.8786 13.3592 20.034 13.5145C20.1893 13.6699 20.1893 13.9029 20.034 14.0582L15.801 18.2912C15.7621 18.3689 15.6456 18.4077 15.5291 18.4077Z" fill="#66C61C"/>
<path fill-rule="evenodd" clip-rule="evenodd" d="M15.2572 18.2912C15.3349 18.3689 15.4126 18.4077 15.5291 18.4077C15.6456 18.4077 15.7621 18.3689 15.8009 18.2912L20.0339 14.0582C20.1893 13.9029 20.1893 13.6699 20.0339 13.5145C19.8786 13.3592 19.6456 13.3592 19.4902 13.5145L15.5291 17.4757L13.4708 15.4175C13.3155 15.2621 13.0825 15.2621 12.9271 15.4175C12.7718 15.5728 12.7718 15.8058 12.9271 15.9611L15.2572 18.2912ZM15.5291 16.3773L14.02 14.8682C13.5614 14.4096 12.8366 14.4096 12.3779 14.8682C11.9193 15.3269 11.9193 16.0517 12.3779 16.5104L14.708 18.8404C14.7927 18.9251 14.9083 19.0195 15.0631 19.0884C15.2214 19.1587 15.3802 19.1844 15.5291 19.1844C15.6662 19.1844 15.8254 19.1626 15.9826 19.0998C16.0996 19.053 16.2681 18.9611 16.4004 18.7902L20.5831 14.6074C21.0418 14.1488 21.0418 13.424 20.5831 12.9653C20.1245 12.5067 19.3997 12.5067 18.941 12.9653L15.5291 16.3773Z" fill="#66C61C"/>
</svg>
