<svg width="40" height="40" viewBox="0 0 40 40" fill="none" xmlns="http://www.w3.org/2000/svg">
<path d="M16.8901 30.617C16.7435 29.8785 16.6667 29.1149 16.6667 28.3333C16.6667 24.0835 18.939 20.3643 22.3351 18.3247L22.5 17.5C22.6434 17.6654 22.7913 17.8266 22.9436 17.9835C24.1181 17.3707 25.4098 16.9519 26.7764 16.7697C25.8471 16.0958 25.0883 15.2837 24.5 14.3333L22.8333 11.6667C22.5278 11.1667 22.125 10.7639 21.625 10.4583C21.125 10.1528 20.5833 10 20 10C19.6111 10 19.1875 10.0625 18.7292 10.1875C18.2708 10.3125 17.5556 10.5833 16.5833 11L10 13.8333V21.6667H13.3333V16L16.3333 14.8333L13.6667 28.3333L5.66667 26.6667L5 30L16.5 32.3333L16.8901 30.617Z" fill="#26272B"/>
<path d="M20.1458 8.1875C20.7986 8.84028 21.5833 9.16667 22.5 9.16667C23.4167 9.16667 24.2014 8.84028 24.8542 8.1875C25.5069 7.53472 25.8333 6.75 25.8333 5.83333C25.8333 4.91667 25.5069 4.13194 24.8542 3.47917C24.2014 2.82639 23.4167 2.5 22.5 2.5C21.5833 2.5 20.7986 2.82639 20.1458 3.47917C19.4931 4.13194 19.1667 4.91667 19.1667 5.83333C19.1667 6.75 19.4931 7.53472 20.1458 8.1875Z" fill="#26272B"/>
<path fill-rule="evenodd" clip-rule="evenodd" d="M28.3333 36.6667C26.0278 36.6667 24.0625 35.8542 22.4375 34.2292C20.8125 32.6042 20 30.6389 20 28.3333C20 26.0556 20.8056 24.0972 22.4167 22.4583C24.0278 20.8194 26 20 28.3333 20C30.6389 20 32.6042 20.8125 34.2292 22.4375C35.8542 24.0625 36.6667 26.0278 36.6667 28.3333C36.6667 30.6389 35.8542 32.6042 34.2292 34.2292C32.6042 35.8542 30.6389 36.6667 28.3333 36.6667ZM27.7917 30.2228H29.4584V23.3333H27.7917V30.2228ZM28.6251 33.3333C28.8473 33.3333 29.0417 33.25 29.2084 33.0833C29.3751 32.9167 29.4584 32.7222 29.4584 32.5C29.4584 32.2778 29.3751 32.0833 29.2084 31.9167C29.0417 31.75 28.8473 31.6667 28.6251 31.6667C28.4029 31.6667 28.2084 31.75 28.0417 31.9167C27.8751 32.0833 27.7917 32.2778 27.7917 32.5C27.7917 32.7222 27.8751 32.9167 28.0417 33.0833C28.2084 33.25 28.4029 33.3333 28.6251 33.3333Z" fill="#26272B"/>
</svg>
