<svg width="40" height="40" viewBox="0 0 40 40" fill="none" xmlns="http://www.w3.org/2000/svg">
<path d="M18.75 35H11.6667C10.75 35 9.9653 34.6736 9.31252 34.0208C8.65974 33.3681 8.33335 32.5833 8.33335 31.6667V10H6.66669V6.66667H15V5H25V6.66667H33.3334V10H31.6667V17.1667C31.1945 17.0278 30.6459 16.9097 30.0209 16.8125C29.3959 16.7153 28.8334 16.6667 28.3334 16.6667V10H11.6667V31.6667H17.1667C17.3334 32.25 17.5556 32.8264 17.8334 33.3958C18.1111 33.9653 18.4167 34.5 18.75 35ZM15 28.3333H16.6667C16.6667 26.5833 16.9445 25.1458 17.5 24.0208L18.3334 22.3333V13.3333H15V28.3333ZM21.6667 18.75C22.1389 18.4444 22.6736 18.1389 23.2709 17.8333C23.8681 17.5278 24.4445 17.3056 25 17.1667V13.3333H21.6667V18.75Z" fill="#26272B"/>
<path fill-rule="evenodd" clip-rule="evenodd" d="M28.3333 36.6667C26.0278 36.6667 24.0625 35.8542 22.4375 34.2292C20.8125 32.6042 20 30.6389 20 28.3333C20 26.0556 20.8056 24.0972 22.4167 22.4583C24.0278 20.8194 26 20 28.3333 20C30.6389 20 32.6042 20.8125 34.2292 22.4375C35.8542 24.0625 36.6667 26.0278 36.6667 28.3333C36.6667 30.6389 35.8542 32.6042 34.2292 34.2292C32.6042 35.8542 30.6389 36.6667 28.3333 36.6667ZM27.7917 30.2228H29.4584V23.3333H27.7917V30.2228ZM28.6251 33.3333C28.8473 33.3333 29.0417 33.25 29.2084 33.0833C29.3751 32.9167 29.4584 32.7222 29.4584 32.5C29.4584 32.2778 29.3751 32.0833 29.2084 31.9167C29.0417 31.75 28.8473 31.6667 28.6251 31.6667C28.4029 31.6667 28.2084 31.75 28.0417 31.9167C27.8751 32.0833 27.7917 32.2778 27.7917 32.5C27.7917 32.7222 27.8751 32.9167 28.0417 33.0833C28.2084 33.25 28.4029 33.3333 28.6251 33.3333Z" fill="#26272B"/>
</svg>
