<svg width="40" height="40" viewBox="0 0 40 40" fill="none" xmlns="http://www.w3.org/2000/svg">
<path d="M3.33334 21.6666L6.83334 11.6666C7.00001 11.1666 7.29862 10.7639 7.72918 10.4583C8.15973 10.1528 8.6389 9.99998 9.16668 9.99998H16.7917C16.7083 10.5555 16.6667 11.1111 16.6667 11.6666C16.6667 12.2222 16.7083 12.7778 16.7917 13.3333H9.75001L8.00001 18.3333H18.7917C19.2639 19 19.7917 19.618 20.375 20.1875C20.9583 20.7569 21.6111 21.25 22.3333 21.6666H6.66668V30H30V23.2083C30.5833 23.125 31.1528 23 31.7083 22.8333C32.2639 22.6666 32.8056 22.4583 33.3333 22.2083V35C33.3333 35.4722 33.1736 35.868 32.8542 36.1875C32.5347 36.5069 32.1389 36.6666 31.6667 36.6666H30C29.5278 36.6666 29.132 36.5069 28.8125 36.1875C28.4931 35.868 28.3333 35.4722 28.3333 35V33.3333H8.33334V35C8.33334 35.4722 8.17362 35.868 7.85418 36.1875C7.53473 36.5069 7.1389 36.6666 6.66668 36.6666H5.00001C4.52779 36.6666 4.13195 36.5069 3.81251 36.1875C3.49307 35.868 3.33334 35.4722 3.33334 35V21.6666ZM25.8333 28.3333C26.5278 28.3333 27.1181 28.0903 27.6042 27.6041C28.0903 27.118 28.3333 26.5278 28.3333 25.8333C28.3333 25.1389 28.0903 24.5486 27.6042 24.0625C27.1181 23.5764 26.5278 23.3333 25.8333 23.3333C25.1389 23.3333 24.5486 23.5764 24.0625 24.0625C23.5764 24.5486 23.3333 25.1389 23.3333 25.8333C23.3333 26.5278 23.5764 27.118 24.0625 27.6041C24.5486 28.0903 25.1389 28.3333 25.8333 28.3333ZM10.8333 28.3333C11.5278 28.3333 12.1181 28.0903 12.6042 27.6041C13.0903 27.118 13.3333 26.5278 13.3333 25.8333C13.3333 25.1389 13.0903 24.5486 12.6042 24.0625C12.1181 23.5764 11.5278 23.3333 10.8333 23.3333C10.1389 23.3333 9.54862 23.5764 9.06251 24.0625C8.5764 24.5486 8.33334 25.1389 8.33334 25.8333C8.33334 26.5278 8.5764 27.118 9.06251 27.6041C9.54862 28.0903 10.1389 28.3333 10.8333 28.3333ZM28.3333 20C26.0278 20 24.0625 19.1875 22.4375 17.5625C20.8125 15.9375 20 13.9722 20 11.6666C20 9.38887 20.8056 7.43054 22.4167 5.79165C24.0278 4.15276 26 3.33331 28.3333 3.33331C30.6389 3.33331 32.6042 4.14581 34.2292 5.77081C35.8542 7.39581 36.6667 9.36109 36.6667 11.6666C36.6667 13.9722 35.8542 15.9375 34.2292 17.5625C32.6042 19.1875 30.6389 20 28.3333 20ZM27.5 13.3333H29.1667V6.66665H27.5V13.3333ZM28.3333 16.6666C28.5556 16.6666 28.75 16.5833 28.9167 16.4166C29.0833 16.25 29.1667 16.0555 29.1667 15.8333C29.1667 15.6111 29.0833 15.4166 28.9167 15.25C28.75 15.0833 28.5556 15 28.3333 15C28.1111 15 27.9167 15.0833 27.75 15.25C27.5833 15.4166 27.5 15.6111 27.5 15.8333C27.5 16.0555 27.5833 16.25 27.75 16.4166C27.9167 16.5833 28.1111 16.6666 28.3333 16.6666Z" fill="#26272B"/>
</svg>
